<svg width="32" height="32" viewBox="0 0 32 32" fill="none" xmlns="http://www.w3.org/2000/svg">
<rect width="32" height="32" fill="white"/>
<path d="M30 16.0852C30 23.1278 24.8629 28.9777 18.1452 30V20.1744H21.4194L22.0403 16.0852H18.1452V13.4726C18.1452 12.3367 18.7097 11.2576 20.4597 11.2576H22.2097V7.7931C22.2097 7.7931 20.629 7.50913 19.0484 7.50913C15.8871 7.50913 13.7984 9.49696 13.7984 13.0183V16.0852H10.2419V20.1744H13.7984V30C7.08065 28.9777 2 23.1278 2 16.0852C2 8.30426 8.26613 2 16 2C23.7339 2 30 8.30426 30 16.0852Z" fill="#2B2B2B"/>
</svg>
