<svg width="32" height="32" viewBox="0 0 32 32" fill="none" xmlns="http://www.w3.org/2000/svg">
<rect width="32" height="32" fill="white"/>
<path d="M16.029 9.29688C19.6853 9.29688 22.7031 12.3147 22.7031 15.971C22.7031 19.6853 19.6853 22.6451 16.029 22.6451C12.3147 22.6451 9.35491 19.6853 9.35491 15.971C9.35491 12.3147 12.3147 9.29688 16.029 9.29688ZM16.029 20.3237C18.4085 20.3237 20.3237 18.4085 20.3237 15.971C20.3237 13.5915 18.4085 11.6763 16.029 11.6763C13.5915 11.6763 11.6763 13.5915 11.6763 15.971C11.6763 18.4085 13.6496 20.3237 16.029 20.3237ZM24.5022 9.06473C24.5022 8.1942 23.8058 7.49777 22.9353 7.49777C22.0647 7.49777 21.3683 8.1942 21.3683 9.06473C21.3683 9.93527 22.0647 10.6317 22.9353 10.6317C23.8058 10.6317 24.5022 9.93527 24.5022 9.06473ZM28.9129 10.6317C29.029 12.779 29.029 19.221 28.9129 21.3683C28.7969 23.4576 28.3326 25.2567 26.8237 26.8237C25.3147 28.3326 23.4576 28.7969 21.3683 28.9129C19.221 29.029 12.779 29.029 10.6317 28.9129C8.54241 28.7969 6.7433 28.3326 5.17634 26.8237C3.66741 25.2567 3.20312 23.4576 3.08705 21.3683C2.97098 19.221 2.97098 12.779 3.08705 10.6317C3.20312 8.54241 3.66741 6.68527 5.17634 5.17634C6.7433 3.66741 8.54241 3.20312 10.6317 3.08705C12.779 2.97098 19.221 2.97098 21.3683 3.08705C23.4576 3.20312 25.3147 3.66741 26.8237 5.17634C28.3326 6.68527 28.7969 8.54241 28.9129 10.6317ZM26.1272 23.6317C26.8237 21.9487 26.6496 17.8862 26.6496 15.971C26.6496 14.1138 26.8237 10.0513 26.1272 8.31027C25.6629 7.20759 24.7924 6.27902 23.6897 5.87277C21.9487 5.17634 17.8862 5.35045 16.029 5.35045C14.1138 5.35045 10.0513 5.17634 8.3683 5.87277C7.20759 6.33705 6.33705 7.20759 5.87277 8.31027C5.17634 10.0513 5.35045 14.1138 5.35045 15.971C5.35045 17.8862 5.17634 21.9487 5.87277 23.6317C6.33705 24.7924 7.20759 25.6629 8.3683 26.1272C10.0513 26.8237 14.1138 26.6496 16.029 26.6496C17.8862 26.6496 21.9487 26.8237 23.6897 26.1272C24.7924 25.6629 25.721 24.7924 26.1272 23.6317Z" fill="#2B2B2B"/>
</svg>
