<svg width="32" height="32" viewBox="0 0 32 32" fill="none" xmlns="http://www.w3.org/2000/svg">
<rect width="32" height="32" fill="white"/>
<path d="M30.3419 8.33594C31 10.6328 31 15.5547 31 15.5547C31 15.5547 31 20.4219 30.3419 22.7734C30.0128 24.0859 28.9708 25.0703 27.7093 25.3984C25.351 26 16.0274 26 16.0274 26C16.0274 26 6.64899 26 4.29068 25.3984C3.02925 25.0703 1.9872 24.0859 1.65814 22.7734C1 20.4219 1 15.5547 1 15.5547C1 15.5547 1 10.6328 1.65814 8.33594C1.9872 7.02344 3.02925 5.98438 4.29068 5.65625C6.64899 5 16.0274 5 16.0274 5C16.0274 5 25.351 5 27.7093 5.65625C28.9708 5.98438 30.0128 7.02344 30.3419 8.33594ZM12.9561 19.9844L20.7441 15.5547L12.9561 11.125V19.9844Z" fill="#2B2B2B"/>
</svg>
